<?xml version="1.0" standalone="no"?>
<!DOCTYPE svg PUBLIC "-//W3C//DTD SVG 20010904//EN"
 "http://www.w3.org/TR/2001/REC-SVG-20010904/DTD/svg10.dtd">
<svg version="1.0" xmlns="http://www.w3.org/2000/svg"
 width="1050.000000pt" height="1050.000000pt" viewBox="0 0 1050.000000 1050.000000"
 preserveAspectRatio="xMidYMid meet">
<metadata>
Created by potrace 1.11, written by Peter Selinger 2001-2013
</metadata>
<g transform="translate(0.000000,1050.000000) scale(0.100000,-0.100000)"
fill="#000000" stroke="none">
<path d="M5085 10494 c-1088 -37 -2113 -396 -2980 -1046 -639 -480 -1188
-1134 -1539 -1836 -313 -626 -485 -1240 -547 -1957 -14 -171 -14 -634 0 -810
68 -810 298 -1549 692 -2228 982 -1688 2823 -2696 4760 -2607 745 34 1404 199
2057 515 549 267 1002 587 1429 1013 1273 1270 1804 3097 1412 4862 -293 1324
-1110 2499 -2256 3247 -732 478 -1598 770 -2463 832 -160 12 -439 19 -565 15z
m505 -548 c453 -78 836 -277 1146 -598 244 -252 386 -530 461 -898 26 -131 24
-450 -5 -589 -32 -154 -79 -291 -147 -426 l-60 -120 -1048 -3 -1048 -2 -41
-28 c-33 -21 -38 -27 -22 -29 10 -2 251 -21 534 -43 l515 -41 295 -65 c414
-91 550 -124 550 -134 0 -12 -89 -91 -193 -171 l-89 -69 -1188 0 -1188 0 -94
72 c-350 268 -584 650 -664 1083 -22 120 -25 417 -5 535 51 300 172 577 349
800 58 73 201 217 282 284 313 259 669 405 1120 460 80 10 449 -3 540 -18z
m-3270 -2006 c261 -61 483 -114 493 -118 15 -6 -18 -69 -234 -452 -137 -245
-254 -449 -258 -453 -4 -4 -44 73 -87 173 l-79 181 -38 -43 c-100 -114 -228
-327 -308 -513 -200 -467 -296 -993 -287 -1573 l3 -222 -206 0 -206 0 -6 176
c-14 393 33 845 129 1229 97 387 233 706 419 985 125 187 215 288 308 345 15
9 6 33 -68 203 -47 106 -85 195 -85 198 0 3 8 3 18 0 9 -3 231 -55 492 -116z
m4585 -2105 c85 -23 170 -72 221 -128 24 -27 44 -53 44 -57 0 -15 -79 -125
-113 -158 l-35 -34 -55 45 c-65 53 -112 70 -188 70 -141 0 -246 -144 -225
-307 23 -174 160 -252 349 -199 l59 16 -6 36 c-3 20 -9 79 -12 132 l-7 96 154
-1 154 -1 1 -235 c0 -129 4 -250 8 -268 10 -44 -8 -49 -103 -26 -77 19 -78 19
-144 -1 l-67 -21 68 -18 c63 -16 73 -16 136 -2 99 23 106 22 106 -16 0 -18 -3
-57 -6 -85 l-7 -53 -434 0 c-432 0 -434 0 -423 20 19 35 122 109 183 132 l58
21 -71 33 c-227 106 -342 390 -264 656 50 170 195 313 359 354 70 17 190 17
260 -1z m-3794 -22 c14 -14 35 -222 23 -232 -5 -5 -94 -4 -197 2 -131 8 -194
8 -205 0 -21 -13 -28 -93 -11 -124 11 -22 13 -22 206 -16 l196 7 -6 -38 c-4
-20 -9 -78 -13 -128 l-7 -91 -191 1 -191 1 0 -65 c0 -92 1 -93 248 -86 l197 6
0 -48 c-1 -26 -7 -81 -16 -122 -18 -95 -18 -86 -5 -149 6 -29 11 -67 11 -82
l0 -29 -364 0 -363 0 -6 48 c-4 34 -2 1157 2 1157 510 0 683 -3 692 -12z m449
-18 c8 -17 64 -138 124 -268 77 -168 113 -237 123 -235 9 2 68 115 135 258 66
140 125 261 130 268 8 9 46 12 145 10 l135 -3 -4 -190 c-1 -104 -3 -374 -3
-600 l0 -410 -141 -3 -141 -3 -6 78 c-4 43 -4 193 -2 333 6 301 15 304 -119
-26 l-86 -211 29 -65 c53 -119 60 -108 -78 -108 -67 0 -121 2 -121 5 0 2 18
40 39 84 l39 81 -102 234 c-56 130 -105 239 -110 243 -4 4 -4 -99 0 -230 6
-189 4 -237 -6 -237 -8 0 -9 -4 -3 -12 5 -7 8 -48 5 -90 l-4 -78 -133 0 -132
0 -5 73 c-4 51 -2 1107 2 1135 0 1 62 1 138 0 l137 -3 15 -30z m1631 18 c14
-14 35 -222 23 -232 -5 -5 -94 -4 -197 2 -131 8 -194 8 -205 0 -21 -13 -28
-93 -11 -124 11 -22 13 -22 206 -16 l196 7 -6 -38 c-4 -20 -9 -78 -13 -128
l-7 -91 -191 1 -191 1 0 -65 c0 -92 1 -93 248 -86 l197 6 0 -48 c-1 -26 -7
-81 -16 -122 -18 -95 -18 -86 -5 -149 6 -29 11 -67 11 -82 l0 -29 -364 0 -363
0 -6 48 c-4 34 -2 1157 2 1157 510 0 683 -3 692 -12z m791 -11 c71 -29 149
-98 180 -160 19 -40 23 -62 23 -147 0 -124 -20 -172 -100 -249 l-56 -53 84
-179 c97 -206 100 -214 86 -214 -6 0 -7 -5 -4 -10 3 -6 -13 -46 -36 -90 l-43
-80 -143 0 c-79 0 -143 2 -143 4 0 9 63 152 71 160 5 6 4 15 -1 21 -6 7 -37
79 -71 161 -33 82 -65 154 -71 161 -15 19 -124 17 -132 -2 -3 -8 -1 -68 5
-132 10 -111 6 -344 -7 -364 -3 -5 -67 -9 -143 -9 l-138 0 -7 76 c-4 49 -2 82
4 90 6 7 7 14 3 17 -5 3 -7 232 -6 509 l2 503 58 6 c32 4 164 6 293 5 219 -2
239 -3 292 -24z m2079 11 c14 -14 35 -222 23 -232 -5 -5 -94 -4 -197 2 -131 8
-194 8 -205 0 -21 -13 -28 -93 -11 -124 11 -22 13 -22 206 -16 l196 7 -6 -38
c-4 -20 -9 -78 -13 -128 l-7 -91 -191 1 -191 1 0 -65 c0 -92 1 -93 248 -86
l197 6 0 -48 c-1 -26 -7 -81 -16 -122 -18 -95 -18 -86 -5 -149 6 -29 11 -67
11 -82 l0 -29 -364 0 -363 0 -6 48 c-4 34 -2 1157 2 1157 510 0 683 -3 692
-12z m1313 -461 c14 -376 -37 -870 -129 -1233 -63 -247 -168 -529 -271 -729
-129 -248 -340 -531 -430 -578 l-44 -22 14 -33 c7 -17 46 -106 85 -195 40 -90
71 -165 69 -167 -4 -4 -977 222 -1000 232 -15 7 18 72 233 453 138 245 254
449 258 453 4 4 44 -74 88 -174 l80 -181 55 68 c236 296 410 706 502 1189 59
306 79 540 74 863 l-3 232 206 0 206 0 7 -178z m-3906 -1223 c509 -55 956
-273 1287 -628 239 -255 380 -528 447 -863 32 -163 32 -453 0 -616 -92 -458
-349 -845 -752 -1129 -706 -498 -1704 -498 -2410 0 -123 87 -203 157 -305 266
-239 255 -380 528 -447 863 -19 94 -22 146 -22 308 0 217 17 336 75 512 225
691 882 1198 1664 1286 114 13 349 14 463 1z"/>
<path d="M5637 5598 c-16 -12 -17 -28 -15 -133 l3 -120 103 0 104 0 29 33 c24
27 29 41 29 85 0 64 -15 95 -57 120 -42 24 -170 35 -196 15z"/>
<path d="M6613 3151 c-17 -16 -22 -37 -27 -120 -4 -56 -11 -101 -16 -101 -4 0
-14 8 -21 17 -22 26 -188 101 -264 119 -51 12 -98 15 -171 11 -87 -4 -111 -9
-166 -36 -39 -18 -82 -49 -108 -77 -44 -48 -115 -188 -146 -286 -10 -32 -21
-58 -24 -58 -4 0 -47 26 -96 59 -105 69 -151 88 -243 101 -140 20 -253 -21
-363 -133 -70 -70 -133 -180 -158 -274 -6 -24 -13 -43 -15 -43 -3 0 -45 30
-93 67 -48 36 -116 80 -152 97 -60 29 -73 31 -175 31 -136 0 -178 -18 -276
-115 -79 -79 -110 -130 -154 -252 -19 -51 -38 -92 -44 -91 -6 2 -39 24 -73 49
-77 56 -149 94 -181 94 -42 0 -71 -52 -49 -86 4 -7 30 -24 57 -39 61 -34 215
-146 215 -157 0 -22 -66 -213 -98 -281 -34 -74 -35 -81 -21 -105 8 -15 26 -33
41 -41 63 -36 117 27 177 205 19 54 37 102 40 106 3 4 35 -13 71 -38 133 -93
243 -134 364 -134 178 0 318 130 381 355 10 33 19 63 21 67 3 4 46 -21 97 -56
112 -76 208 -106 338 -107 126 0 212 36 308 129 63 62 103 131 146 257 16 44
31 84 35 88 4 5 43 -17 86 -48 43 -31 112 -73 153 -93 69 -34 82 -37 161 -37
79 0 92 3 161 37 40 20 97 58 126 83 54 48 150 183 179 251 l16 39 37 -45
c103 -129 138 -145 193 -90 25 26 29 36 24 62 -3 18 -14 41 -24 53 -10 11 -58
67 -107 123 l-88 104 12 131 c15 175 14 184 -9 207 -25 25 -50 25 -77 1z
m-419 -513 c49 -156 89 -287 90 -292 2 -12 -75 -37 -103 -34 -23 3 -32 24
-117 280 -101 304 -100 288 -27 314 70 24 62 37 157 -268z m111 250 c15 -16
135 -375 135 -404 0 -11 -15 -35 -34 -53 l-34 -33 -21 69 c-11 37 -47 153 -80
257 l-59 188 40 -5 c23 -3 46 -11 53 -19z m208 -126 l39 -40 -11 -53 c-6 -30
-15 -60 -19 -66 -5 -8 -21 28 -41 90 -19 56 -36 108 -39 116 -8 22 27 -2 71
-47z m-541 -204 c37 -111 66 -203 64 -205 -4 -4 -168 106 -205 137 l-23 20 42
125 c24 69 46 125 49 125 4 0 37 -91 73 -202z m-626 100 c3 -4 39 -116 79
-250 l74 -243 -46 -42 c-24 -24 -48 -43 -52 -43 -4 0 -48 129 -98 288 -63 200
-87 289 -79 295 12 8 112 4 122 -5z m-136 -318 c45 -146 83 -269 84 -275 1
-11 -63 -8 -115 6 -40 10 -30 -16 -130 323 l-38 130 50 50 c29 29 53 46 58 40
5 -5 46 -128 91 -274z m400 171 l24 -19 -18 -59 c-24 -81 -48 -144 -52 -140
-5 5 -94 299 -94 310 0 7 74 -42 140 -92z m-625 -242 c18 -63 32 -115 31 -116
-7 -8 -115 84 -116 98 0 21 41 141 47 136 2 -3 19 -56 38 -118z m-538 89 c11
-14 173 -496 173 -515 0 -14 -59 -58 -66 -50 -3 3 -44 126 -90 274 -46 147
-87 276 -90 286 -4 14 1 17 29 17 19 0 39 -6 44 -12z m-81 -306 l90 -287 -32
-3 c-18 -2 -50 2 -71 7 l-38 10 -77 232 -77 231 51 54 c28 30 54 52 57 49 3
-3 47 -135 97 -293z m304 167 c41 -33 76 -62 77 -63 3 -3 -47 -168 -55 -180
-3 -5 -26 51 -52 125 -62 176 -63 179 -53 179 5 0 42 -27 83 -61z m-523 -244
c23 -69 39 -125 36 -125 -12 0 -133 95 -133 104 0 17 44 146 50 146 3 0 24
-56 47 -125z"/>
</g>
</svg>
